<?xml version="1.0" standalone="no"?><!DOCTYPE svg PUBLIC "-//W3C//DTD SVG 1.1//EN" "http://www.w3.org/Graphics/SVG/1.1/DTD/svg11.dtd"><svg t="1643897350246" class="icon" viewBox="0 0 1024 1024" version="1.1" xmlns="http://www.w3.org/2000/svg" p-id="6105" xmlns:xlink="http://www.w3.org/1999/xlink" width="128" height="128"><defs><style type="text/css"></style></defs><path d="M819.036 44.377h-614.073l-164.627 161.599v613.061l165.637 165.637h613.061l160.587-165.637v-613.061l-160.587-161.599zM929.124 797.827l-131.298 135.338h-570.641l-136.349-136.349v-570.641l134.329-132.308h572.661l131.298 132.308v571.652z" fill="" p-id="6106"></path><path d="M512 264.553c-136.349 0-247.447 111.099-247.447 247.447s111.099 247.447 247.447 247.447 247.447-111.099 247.447-247.447-111.099-247.447-247.447-247.447zM512 708.949c-109.077 0-196.949-87.869-196.949-196.949s87.869-196.949 196.949-196.949 196.949 88.879 196.949 196.949-88.879 196.949-196.949 196.949z" fill="" p-id="6107"></path><path d="M512 426.151c-47.47 0-86.859 39.391-86.859 86.859s39.391 86.859 86.859 86.859 86.859-39.391 86.859-86.859-39.391-86.859-86.859-86.859zM512 578.659c-36.357 0-66.659-30.299-66.659-66.659s30.299-66.659 66.659-66.659c36.357 0 66.659 30.299 66.659 66.659s-30.299 66.659-66.659 66.659z" fill="" p-id="6108"></path><path d="M473.621 512c0 21.196 17.184 38.379 38.379 38.379s38.379-17.184 38.379-38.379c0 0 0 0 0 0 0-21.196-17.184-38.379-38.379-38.379-21.196 0-38.379 17.184-38.379 38.379z" fill="" p-id="6109"></path><path d="M769.546 807.926c0 0.002 0 0.003 0 0.005 0 21.196 17.184 38.379 38.379 38.379 21.196 0 38.379-17.184 38.379-38.379 0-0.002 0-0.004 0-0.006 0-0.001 0-0.003 0-0.005 0-21.196-17.184-38.379-38.379-38.379-21.196 0-38.379 17.184-38.379 38.379 0 0.002 0 0.004 0 0.006z" fill="" p-id="6110"></path><path d="M177.695 807.926c0 0.002 0 0.003 0 0.005 0 21.196 17.184 38.379 38.379 38.379 21.196 0 38.379-17.184 38.379-38.379 0-0.002 0-0.004 0-0.006 0-0.001 0-0.003 0-0.005 0-21.196-17.184-38.379-38.379-38.379-21.196 0-38.379 17.184-38.379 38.379 0 0.002 0 0.004 0 0.006z" fill="" p-id="6111"></path><path d="M769.546 216.074c0 0.002 0 0.003 0 0.005 0 21.196 17.184 38.379 38.379 38.379 21.196 0 38.379-17.184 38.379-38.379 0-0.002 0-0.004 0-0.006 0-0.001 0-0.003 0-0.005 0-21.196-17.184-38.379-38.379-38.379-21.196 0-38.379 17.184-38.379 38.379 0 0.002 0 0.004 0 0.006z" fill="" p-id="6112"></path><path d="M176.686 216.074c0 21.196 17.184 38.379 38.379 38.379s38.379-17.184 38.379-38.379c0-21.196-17.184-38.379-38.379-38.379-21.196 0-38.379 17.184-38.379 38.379z" fill="" p-id="6113"></path></svg>