<?xml version="1.0" encoding="UTF-8"?>
<!-- Generated by Pixelmator Pro 3.1.1 -->
<svg width="80" height="24" viewBox="0 0 80 24" xmlns="http://www.w3.org/2000/svg" xmlns:xlink="http://www.w3.org/1999/xlink">
    <path id="path1" fill="#000000" stroke="none" d="M 3.752389 24 L 2.777389 24 C 2.752284 23.934977 2.728942 23.869286 2.707389 23.802999 C 2.492389 23.136999 2.113389 22.313 2.015389 21.649 C 1.869389 20.665001 2.795389 20.610001 3.389389 20.184 C 4.304389 19.524 5.024389 19.159 6.016389 18.563999 C 6.311389 18.385 7.198389 17.940001 7.297389 17.735001 C 7.498389 17.327 6.952389 16.753 6.807389 16.434999 C 6.582389 15.928 6.462389 15.498 6.431389 15 C 5.607389 14.87 4.976389 14.373 4.587389 13.815 C 3.957389 12.89 3.521389 11.18 4.062389 9.879 C 4.107389 9.776 4.31639 9.574 4.347389 9.416 C 4.407389 9.108 4.242389 8.696 4.227389 8.368 C 4.167389 6.676001 4.511389 5.218 5.652389 4.708 C 6.115389 2.868 7.765389 2.255001 9.325389 1.341 C 9.905389 0.999001 10.549389 0.778999 11.215389 0.534 C 13.587389 -0.343 17.24239 -0.177999 19.209391 1.316999 C 20.045391 1.950001 21.385389 3.287001 21.865391 4.256001 C 23.12739 6.811001 23.035391 11.081 22.15239 14.19 C 22.032391 14.611 21.862391 15.222 21.61939 15.723 C 21.451389 16.073 20.930389 16.773001 20.99439 17.083 C 21.05839 17.396999 22.184391 18.253 22.42639 18.478001 C 22.86039 18.9 23.68639 19.452999 23.750391 19.978001 C 23.820391 20.535 23.50239 21.313999 23.340389 21.853001 C 23.12339 22.573999 22.90439 23.294001 22.68639 23.983999 L 3.750389 23.983999 Z M 14.856389 20.459999 C 14.311389 20.16 13.495389 19.837999 12.791389 19.702999 C 11.92139 19.539 12.011389 20.891001 12.041389 21.697001 C 12.071389 22.34 12.401389 23.013 12.551389 23.441 C 12.627389 23.638 12.641389 23.851 12.807389 23.889999 C 13.107389 23.958 14.097389 23.563999 14.382389 23.410999 C 14.982389 23.083 15.446389 22.566999 15.956389 22.222 C 15.972389 22.052 15.972389 21.882 15.986389 21.714001 C 15.645558 21.543991 15.272063 21.449509 14.891389 21.437 C 15.205389 21.287001 15.641389 21.287001 15.926389 21.105 L 15.942389 20.912001 C 15.446389 20.882 15.252389 20.658001 14.92139 20.476 Z M 22.31039 23.395 C 22.495077 22.819286 22.65028 22.234526 22.775391 21.643 C 22.83539 21.356001 22.990391 20.725 22.95339 20.466999 C 22.89439 20.007999 22.26939 19.667999 21.94939 19.381001 C 21.365391 18.856001 20.99939 18.406 20.389391 17.912001 C 20.14039 18.287001 19.60939 18.527 19.406389 18.826 C 20.85339 18.136999 21.11639 21.451 20.54739 22.516001 C 20.63739 22.844999 20.938391 22.966 21.06139 23.250999 L 20.975389 23.417 L 22.26539 23.417 C 22.278391 23.417 22.295391 23.417 22.309391 23.431 Z M 15.676389 23.382999 C 15.62639 23.309 15.576389 23.247999 15.526389 23.174 L 15.225389 23.368999 L 15.675389 23.368999 Z M 18.44639 23.382999 C 18.45439 23.174 18.46439 22.979 18.476391 22.785 C 17.94639 22.813999 17.65139 22.305 17.28039 22.257999 C 16.95639 22.212999 16.680389 22.618999 16.260389 22.452999 C 16.16539 22.558001 16.077389 22.68 15.976389 22.768999 C 16.13039 22.948999 16.271389 23.143999 16.400391 23.353001 L 17.215389 23.353001 C 17.229391 23.188999 17.350389 23.068001 17.51539 23.068001 C 17.680389 23.068001 17.799391 23.188999 17.799391 23.337999 L 18.459391 23.337999 Z M 20.562389 23.382999 C 20.24839 22.903999 19.615391 22.485001 18.882391 22.827999 L 18.85239 23.368999 L 20.562389 23.368999 Z M 12.052389 23.382999 L 11.948389 23.039 C 11.72339 22.319 11.588389 21.778999 11.543389 21.358999 C 10.629389 20.923 9.668389 20.489 8.889389 19.933001 C 8.739389 19.827999 7.780389 18.583 7.659389 18.628 C 5.920389 19.304001 4.300389 20.488001 2.845389 21.612 C 3.101389 22.169001 3.325389 22.753 3.535389 23.351999 L 12.040389 23.351999 Z M 20.31739 21.27 C 20.288391 20.757999 20.153391 19.709999 19.837391 19.530001 C 19.177391 19.139999 17.99139 20.309999 17.497391 20.473 C 17.542391 20.622999 17.632391 20.743999 17.64739 20.952999 C 17.93239 20.879 18.292391 20.924 18.545391 21.045 C 18.246389 21.075001 17.916389 21.075001 17.72139 21.209 C 17.64739 21.403999 17.737391 21.688999 17.69239 21.973 C 18.382391 22.17 19.19239 22.275999 20.077391 22.305 C 20.24139 22.077999 20.302391 21.66 20.288391 21.223 Z M 16.237391 20.91 C 16.19339 21.285 16.28339 21.42 16.357389 21.853001 C 17.61739 22.243999 17.39139 20.113001 16.222389 20.893999 Z M 9.640389 19.5 C 9.19039 19.957001 10.910389 20.582001 11.45439 20.615 C 11.45439 20.325001 11.61939 20.051001 11.589389 19.844999 C 10.939389 19.726999 10.087389 19.802999 9.644389 19.497999 Z M 15.205389 19.715 C 15.205389 19.757999 15.144389 19.745001 15.137389 19.778999 C 15.717389 20.23 16.15139 20.323999 16.93939 20.289 C 17.29339 20.027 17.60939 19.726 17.982389 19.482 C 17.12739 19.556 16.05139 20.089001 15.208389 19.712 Z M 18.625391 1.989 C 17.01939 1.083 14.27539 0.398001 12.549389 1.257999 C 11.169389 1.950001 9.279389 3.098 8.65039 4.549999 C 9.250389 5.952 8.484389 7.236 8.42439 8.659 C 8.406389 9.416 8.784389 10.079 8.81539 10.901 C 8.61539 11.239 7.990389 11.281 7.555389 11.257 C 7.409389 10.528 7.155389 9.708 6.400389 9.627 C 5.336389 9.511 4.555389 10.391 4.510389 11.31 C 4.450389 12.39 5.343389 14.174 6.595389 14.055 C 7.083389 14.009 7.203389 13.515 7.734389 13.515 C 8.019389 14.085 7.289389 14.265 7.211389 14.669 C 7.195389 14.774 7.271389 15.18 7.315389 15.374 C 7.548389 16.318001 8.059389 17.534 8.56039 18.254 C 9.195389 19.153999 10.444389 19.305 11.78939 19.395 C 12.029389 18.870001 12.91439 18.915001 13.495389 19.049 C 12.804389 18.778999 12.159389 18.104 11.620389 17.52 C 11.005389 16.844 10.390389 16.110001 10.359389 15.24 C 11.514389 16.844 12.45939 18.24 14.559389 18.944 C 16.149389 19.469 18.00939 18.690001 19.223391 17.834999 C 19.733391 17.476 20.034389 16.905001 20.393391 16.396 C 21.743391 14.46 22.37339 11.686 22.239389 9.002 C 22.17939 7.890999 22.17939 6.781 21.803391 6.047001 C 21.414391 5.265999 20.108391 4.576 19.32839 5.265999 C 19.178391 4.501999 19.958389 4.035999 20.87339 4.306 C 20.21339 3.452 19.53739 2.448 18.607389 1.922001 Z M 14.460389 14.896 C 15.075389 16.440001 17.184391 16.259001 18.965389 16.219 C 18.88139 16.413 18.709391 16.653999 18.500391 16.733999 C 17.930389 16.966 16.355391 17.142 15.563389 16.722 C 15.057389 16.452 14.739389 15.849 14.46139 15.495 C 14.324389 15.323 13.666389 14.887 14.449389 14.886 Z M 14.62439 14.026 C 15.517389 14.49 17.14439 14.543 18.355391 14.506 C 18.421391 14.773 18.421391 15.099 18.423389 15.419 C 16.87339 15.499 15.037389 15.115 14.629389 14.024 L 14.62439 14.024 Z M 21.299391 13.44 C 20.826389 14.34 20.15439 15.337 18.760389 15.368 C 18.737391 15.084 18.715389 14.633 18.760389 14.464 C 19.82439 14.361 20.487391 13.818 21.303391 13.447 Z M 20.650391 12.773 C 19.63039 13.433 18.496389 14.148 16.826389 13.983 C 16.475389 13.673 16.341391 12.983 16.68639 12.525 C 16.86739 12.838 16.746389 13.41 17.25639 13.495 C 18.20039 13.66 19.29439 12.916 19.986391 12.655 C 20.406389 11.942 19.94039 11.679 19.566391 11.222 C 18.784389 10.292 17.736391 9.122 17.764391 7.712 C 18.07839 7.487999 18.11039 8.058 18.15539 8.162 C 18.559391 9.122 19.57939 10.337 20.32939 11.162 C 20.50939 11.372 20.809391 11.552 20.83939 11.686 C 20.931391 12.076 20.58539 12.54 20.63039 12.796 Z M 7.211389 12.098 C 6.897389 11.914 6.818389 11.108 6.443389 11.088 C 5.908389 11.058 6.005389 12.138 6.007389 12.768 C 5.637389 12.438 5.572389 11.403 5.843389 10.878 C 5.535389 10.728 5.398389 11.042 5.225389 11.162 C 5.445389 9.572 7.565389 10.428 7.215389 12.122 Z M 5.593389 5.994999 C 4.908389 6.750999 5.053389 8.169 5.134389 9.183 C 6.378389 8.398 8.03239 9.243 8.017389 10.577 C 8.61239 10.561 8.24039 9.833 8.132389 9.362 C 7.779389 7.834 8.724389 6.174999 8.173389 4.771999 C 7.109389 4.855999 6.234389 5.292 5.595389 5.987 Z M 14.713389 7.108 C 15.02039 7.67 15.11739 8.256 15.55339 8.678 C 15.748389 8.868 16.12739 9.102 15.94039 9.628 C 15.89539 9.749 15.575389 10.019 15.389389 10.078 C 14.715389 10.273 13.135389 10.108 13.668389 9.268 C 14.231389 9.283 14.982389 9.628 15.40039 9.223 C 15.08639 8.699 14.515389 7.693001 14.726389 7.093 Z M 20.91139 7.094999 L 20.979391 7.094999 C 21.309391 7.763 21.57939 8.47 21.983391 9.06 C 21.71339 9.688 19.930389 10.25 19.96039 9.117 C 20.350389 8.947 21.010389 9.082 21.355391 8.867 C 21.16239 8.311 20.875391 7.861 20.921391 7.096001 Z M 13.984389 5.478001 C 12.562389 5.147999 11.853389 6.07 11.424389 7.031 C 11.040389 6.937 11.193389 6.416 11.28939 6.147999 C 11.544389 5.447001 12.569389 4.514999 13.408389 4.642 C 13.767389 4.698999 14.25639 5.028 13.984389 5.476 Z M 10.522389 1.593 C 8.962389 2.033001 6.962389 3.167 6.322389 4.566999 C 6.817389 4.497 7.162389 4.246 7.652389 4.216 C 7.838389 4.200001 8.080389 4.290001 8.293389 4.230999 C 8.717389 4.126999 9.073389 3.166 9.39539 2.820999 C 9.705389 2.476 10.080389 2.325001 10.335389 2.011 C 10.502389 1.921 10.74439 1.937 10.755389 1.681 C 10.682389 1.605999 10.60539 1.546 10.523389 1.576 L 10.523389 1.593 Z"/>
    <path id="-" fill="#000000" stroke="none" d="M 37.617001 11.473 L 42.303001 15.168 L 39.201 7.506001 Z M 39 0 C 32.370998 0 27 5.371 27 12 C 27 18.629 32.370998 24 39 24 C 45.628998 24 51 18.629 51 12 C 51 5.371 45.628998 0 39 0 Z M 44.797001 17.305 C 44.785999 17.775999 44.393997 18.146999 43.922001 18.135 C 43.686001 18.135 43.506001 18.045 43.257999 17.841999 L 37.068001 12.842 L 34.988998 18.045 L 33.191002 18.045 L 38.438 5.440001 C 38.562 5.125999 38.864998 4.92 39.202 4.934 C 39.528 4.92 39.832001 5.123001 39.944 5.440001 L 44.718002 16.934 C 44.763 17.045 44.798 17.167999 44.798 17.282 C 44.797001 17.291 44.797001 17.291 44.797001 17.305 Z"/>
    <path id="--2" fill="#000000" stroke="none" d="M 78.600403 9.148956 L 78.566704 9.062757 L 75.300003 0.537657 C 75.233551 0.370522 75.115852 0.228737 74.963799 0.132658 C 74.652206 -0.06068 74.253098 -0.039162 73.964104 0.186558 C 73.824524 0.299904 73.723267 0.453506 73.674103 0.626457 L 71.468597 7.374456 L 62.537498 7.374456 L 60.331799 0.626457 C 60.283955 0.452545 60.182472 0.298155 60.041801 0.185257 C 59.752758 -0.0404 59.353653 -0.061838 59.042099 0.131557 C 58.890408 0.227999 58.772816 0.369621 58.705898 0.536457 L 55.433201 9.057756 L 55.4007 9.143956 C 54.434635 11.668047 55.255047 14.526793 57.412601 16.154457 L 57.423901 16.163157 L 57.453899 16.184458 L 62.429901 19.910858 L 64.891899 21.774157 L 66.391403 22.906258 C 66.7519 23.17997 67.250603 23.17997 67.611099 22.906258 L 69.110603 21.774157 L 71.572502 19.910858 L 76.578499 16.161957 L 76.591003 16.151957 C 78.743507 14.524147 79.56234 11.670406 78.600403 9.148956 Z"/>
</svg>
