<?xml version="1.0" standalone="no"?><!DOCTYPE svg PUBLIC "-//W3C//DTD SVG 1.1//EN" "http://www.w3.org/Graphics/SVG/1.1/DTD/svg11.dtd"><svg t="1643897248791" class="icon" viewBox="0 0 1170 1024" version="1.1" xmlns="http://www.w3.org/2000/svg" p-id="2711" xmlns:xlink="http://www.w3.org/1999/xlink" width="146.25" height="128"><defs><style type="text/css"></style></defs><path d="M1060.571429 1024H109.714286a109.714286 109.714286 0 0 1-109.714286-109.714286V109.714286a109.714286 109.714286 0 0 1 109.714286-109.714286h950.857143a109.714286 109.714286 0 0 1 109.714285 109.714286v804.571428a109.714286 109.714286 0 0 1-109.714285 109.714286zM182.857143 877.714286h804.571428a36.571429 36.571429 0 0 0 36.571429-36.571429V248.210286L613.376 658.834286l-22.162286-21.942857-26.733714 26.733714L146.285714 245.211429V841.142857a36.571429 36.571429 0 0 0 36.571429 36.571429zM922.221714 146.285714H254.208l334.006857 334.006857z" p-id="2712"></path></svg>